<mxfile host="app.diagrams.net" agent="Mozilla/5.0 (Windows NT 10.0; Win64; x64) AppleWebKit/537.36 (KHTML, like Gecko) Chrome/132.0.0.0 Safari/537.36" version="26.0.10">
  <diagram id="C5RBs43oDa-KdzZeNtuy" name="Page-1">
    <mxGraphModel dx="1588" dy="1046" grid="1" gridSize="10" guides="1" tooltips="1" connect="1" arrows="1" fold="1" page="1" pageScale="1" pageWidth="827" pageHeight="1169" math="0" shadow="0">
      <root>
        <mxCell id="WIyWlLk6GJQsqaUBKTNV-0" />
        <mxCell id="WIyWlLk6GJQsqaUBKTNV-1" parent="WIyWlLk6GJQsqaUBKTNV-0" />
        <mxCell id="n48ltDwbfwv2yMtDP_i--22" value="" style="edgeStyle=none;curved=1;rounded=0;orthogonalLoop=1;jettySize=auto;html=1;fontSize=12;startSize=8;endSize=8;entryX=0.512;entryY=0.18;entryDx=0;entryDy=0;entryPerimeter=0;" edge="1" parent="WIyWlLk6GJQsqaUBKTNV-1" source="n48ltDwbfwv2yMtDP_i--0" target="n48ltDwbfwv2yMtDP_i--10">
          <mxGeometry relative="1" as="geometry" />
        </mxCell>
        <mxCell id="n48ltDwbfwv2yMtDP_i--0" value="INICIO" style="strokeWidth=2;html=1;shape=mxgraph.flowchart.start_1;whiteSpace=wrap;fillColor=#dae8fc;strokeColor=#6c8ebf;" vertex="1" parent="WIyWlLk6GJQsqaUBKTNV-1">
          <mxGeometry x="400" y="330" width="100" height="60" as="geometry" />
        </mxCell>
        <mxCell id="n48ltDwbfwv2yMtDP_i--10" value="&lt;div&gt;&lt;br&gt;&lt;/div&gt;&lt;div&gt;N1&lt;/div&gt;" style="html=1;strokeWidth=2;shape=manualInput;whiteSpace=wrap;rounded=1;size=26;arcSize=11;fillColor=#d5e8d4;strokeColor=#82b366;" vertex="1" parent="WIyWlLk6GJQsqaUBKTNV-1">
          <mxGeometry x="400" y="430" width="100" height="60" as="geometry" />
        </mxCell>
        <mxCell id="n48ltDwbfwv2yMtDP_i--11" value="&lt;div&gt;N2&lt;/div&gt;" style="html=1;strokeWidth=2;shape=manualInput;whiteSpace=wrap;rounded=1;size=26;arcSize=11;fillColor=#d5e8d4;strokeColor=#82b366;" vertex="1" parent="WIyWlLk6GJQsqaUBKTNV-1">
          <mxGeometry x="400" y="520" width="100" height="60" as="geometry" />
        </mxCell>
        <mxCell id="n48ltDwbfwv2yMtDP_i--12" value="&lt;div&gt;N3&lt;/div&gt;" style="html=1;strokeWidth=2;shape=manualInput;whiteSpace=wrap;rounded=1;size=26;arcSize=11;fillColor=#d5e8d4;strokeColor=#82b366;" vertex="1" parent="WIyWlLk6GJQsqaUBKTNV-1">
          <mxGeometry x="400" y="610" width="100" height="60" as="geometry" />
        </mxCell>
        <mxCell id="n48ltDwbfwv2yMtDP_i--15" value="" style="edgeStyle=none;curved=1;rounded=0;orthogonalLoop=1;jettySize=auto;html=1;fontSize=12;startSize=8;endSize=8;" edge="1" parent="WIyWlLk6GJQsqaUBKTNV-1" source="n48ltDwbfwv2yMtDP_i--13" target="n48ltDwbfwv2yMtDP_i--14">
          <mxGeometry relative="1" as="geometry" />
        </mxCell>
        <mxCell id="n48ltDwbfwv2yMtDP_i--13" value="&lt;div&gt;N4&lt;/div&gt;" style="html=1;strokeWidth=2;shape=manualInput;whiteSpace=wrap;rounded=1;size=26;arcSize=11;fillColor=#d5e8d4;strokeColor=#82b366;" vertex="1" parent="WIyWlLk6GJQsqaUBKTNV-1">
          <mxGeometry x="400" y="700" width="100" height="60" as="geometry" />
        </mxCell>
        <mxCell id="n48ltDwbfwv2yMtDP_i--17" value="" style="edgeStyle=none;curved=1;rounded=0;orthogonalLoop=1;jettySize=auto;html=1;fontSize=12;startSize=8;endSize=8;" edge="1" parent="WIyWlLk6GJQsqaUBKTNV-1" source="n48ltDwbfwv2yMtDP_i--14" target="n48ltDwbfwv2yMtDP_i--16">
          <mxGeometry relative="1" as="geometry" />
        </mxCell>
        <mxCell id="n48ltDwbfwv2yMtDP_i--14" value="RES = (N1*N1)+(N2*N2)+(N3*N3)+(N4*N4)" style="rounded=1;whiteSpace=wrap;html=1;absoluteArcSize=1;arcSize=14;strokeWidth=2;fillColor=#fff2cc;strokeColor=#d6b656;" vertex="1" parent="WIyWlLk6GJQsqaUBKTNV-1">
          <mxGeometry x="330" y="790" width="240" height="80" as="geometry" />
        </mxCell>
        <mxCell id="n48ltDwbfwv2yMtDP_i--21" value="" style="edgeStyle=none;curved=1;rounded=0;orthogonalLoop=1;jettySize=auto;html=1;fontSize=12;startSize=8;endSize=8;" edge="1" parent="WIyWlLk6GJQsqaUBKTNV-1" source="n48ltDwbfwv2yMtDP_i--16" target="n48ltDwbfwv2yMtDP_i--20">
          <mxGeometry relative="1" as="geometry" />
        </mxCell>
        <mxCell id="n48ltDwbfwv2yMtDP_i--16" value="RES" style="strokeWidth=2;html=1;shape=mxgraph.flowchart.display;whiteSpace=wrap;fillColor=#e1d5e7;strokeColor=#9673a6;" vertex="1" parent="WIyWlLk6GJQsqaUBKTNV-1">
          <mxGeometry x="400" y="910" width="100" height="60" as="geometry" />
        </mxCell>
        <mxCell id="n48ltDwbfwv2yMtDP_i--20" value="FIM" style="strokeWidth=2;html=1;shape=mxgraph.flowchart.start_1;whiteSpace=wrap;fillColor=#dae8fc;strokeColor=#6c8ebf;" vertex="1" parent="WIyWlLk6GJQsqaUBKTNV-1">
          <mxGeometry x="400" y="1010" width="100" height="60" as="geometry" />
        </mxCell>
        <mxCell id="n48ltDwbfwv2yMtDP_i--24" style="edgeStyle=none;curved=1;rounded=0;orthogonalLoop=1;jettySize=auto;html=1;entryX=0.503;entryY=0.202;entryDx=0;entryDy=0;entryPerimeter=0;fontSize=12;startSize=8;endSize=8;" edge="1" parent="WIyWlLk6GJQsqaUBKTNV-1" source="n48ltDwbfwv2yMtDP_i--10" target="n48ltDwbfwv2yMtDP_i--11">
          <mxGeometry relative="1" as="geometry" />
        </mxCell>
        <mxCell id="n48ltDwbfwv2yMtDP_i--25" style="edgeStyle=none;curved=1;rounded=0;orthogonalLoop=1;jettySize=auto;html=1;exitX=0.5;exitY=1;exitDx=0;exitDy=0;entryX=0.486;entryY=0.228;entryDx=0;entryDy=0;entryPerimeter=0;fontSize=12;startSize=8;endSize=8;" edge="1" parent="WIyWlLk6GJQsqaUBKTNV-1" source="n48ltDwbfwv2yMtDP_i--11" target="n48ltDwbfwv2yMtDP_i--12">
          <mxGeometry relative="1" as="geometry" />
        </mxCell>
        <mxCell id="n48ltDwbfwv2yMtDP_i--26" style="edgeStyle=none;curved=1;rounded=0;orthogonalLoop=1;jettySize=auto;html=1;entryX=0.497;entryY=0.243;entryDx=0;entryDy=0;entryPerimeter=0;fontSize=12;startSize=8;endSize=8;" edge="1" parent="WIyWlLk6GJQsqaUBKTNV-1" source="n48ltDwbfwv2yMtDP_i--12" target="n48ltDwbfwv2yMtDP_i--13">
          <mxGeometry relative="1" as="geometry" />
        </mxCell>
      </root>
    </mxGraphModel>
  </diagram>
</mxfile>
